<mxfile host="app.diagrams.net" modified="2024-02-23T14:39:15.407Z" agent="Mozilla/5.0 (Windows NT 10.0; Win64; x64; rv:122.0) Gecko/20100101 Firefox/122.0" version="21.6.6" etag="kWtQrqmBPyfEs17SHnRK" type="github">
  <diagram name="Page-1" id="hRt73MzeivpGr3lq0yE6">
    <mxGraphModel>
      <root>
        <mxCell id="0" />
        <mxCell id="1" parent="0" />
      </root>
    </mxGraphModel>
  </diagram>
</mxfile>
